<?xml version="1.0" encoding="UTF-8" standalone="no"?>
<!-- Created with Inkscape (http://www.inkscape.org/) -->

<svg
   xmlns:dc="http://purl.org/dc/elements/1.1/"
   xmlns:cc="http://creativecommons.org/ns#"
   xmlns:rdf="http://www.w3.org/1999/02/22-rdf-syntax-ns#"
   xmlns:svg="http://www.w3.org/2000/svg"
   xmlns="http://www.w3.org/2000/svg"
   xmlns:sodipodi="http://sodipodi.sourceforge.net/DTD/sodipodi-0.dtd"
   xmlns:inkscape="http://www.inkscape.org/namespaces/inkscape"
   width="210mm"
   height="297mm"
   viewBox="0 0 210 297"
   version="1.1"
   id="svg8"
   inkscape:export-filename="/home/fernando/my-projects/webpage-mokeyplus/app/assets/images/seo-rocket.png"
   inkscape:export-xdpi="96"
   inkscape:export-ydpi="96"
   inkscape:version="0.92.2 (unknown)"
   sodipodi:docname="seo-rocket.svg">
  <defs
     id="defs2" />
  <sodipodi:namedview
     id="base"
     pagecolor="#ffffff"
     bordercolor="#666666"
     borderopacity="1.0"
     inkscape:pageopacity="0.0"
     inkscape:pageshadow="2"
     inkscape:zoom="0.35"
     inkscape:cx="-562.85714"
     inkscape:cy="560"
     inkscape:document-units="mm"
     inkscape:current-layer="layer1"
     showgrid="false"
     inkscape:window-width="1855"
     inkscape:window-height="1056"
     inkscape:window-x="65"
     inkscape:window-y="24"
     inkscape:window-maximized="1" />
  <metadata
     id="metadata5">
    <rdf:RDF>
      <cc:Work
         rdf:about="">
        <dc:format>image/svg+xml</dc:format>
        <dc:type
           rdf:resource="http://purl.org/dc/dcmitype/StillImage" />
        <dc:title></dc:title>
      </cc:Work>
    </rdf:RDF>
  </metadata>
  <g
     inkscape:label="Layer 1"
     inkscape:groupmode="layer"
     id="layer1">
    <g
       id="g11137"
       transform="matrix(0.35277777,0,0,-0.35277777,112.655,164.68337)">
      <path
         inkscape:connector-curvature="0"
         id="path6306"
         style="fill:#002745;fill-opacity:1;fill-rule:nonzero;stroke:none"
         d="m 0,0 h -27.684 c -3.653,0 -6.615,-2.962 -6.615,-6.615 0,-3.654 2.962,-6.615 6.615,-6.615 H 0 c 3.653,0 6.615,2.961 6.615,6.615 C 6.615,-2.962 3.653,0 0,0"
         transform="translate(154.05848,61.601622)" />
      <path
         inkscape:connector-curvature="0"
         id="path6310"
         style="fill:#002745;fill-opacity:1;fill-rule:nonzero;stroke:none"
         d="m 0,0 h -27.684 c -3.653,0 -6.615,-2.962 -6.615,-6.615 0,-3.654 2.962,-6.615 6.615,-6.615 H 0 c 3.653,0 6.615,2.961 6.615,6.615 C 6.615,-2.962 3.653,0 0,0"
         transform="translate(-165.462,12.610421)" />
      <path
         d="m 972.6177,2999.5518 h -27.684 c -3.653,0 -6.615,-2.962 -6.615,-6.615 0,-3.654 2.962,-6.615 6.615,-6.615 h 27.684 c 3.653,0 6.615,2.961 6.615,6.615 0,3.653 -2.962,6.615 -6.615,6.615"
         style="fill:#002745;fill-opacity:1;fill-rule:nonzero;stroke:none"
         id="path6314"
         inkscape:connector-curvature="0"
         transform="translate(-880.5103,-2823.9072)" />
      <path
         inkscape:connector-curvature="0"
         id="path6318"
         style="fill:#002745;fill-opacity:1;fill-rule:nonzero;stroke:none"
         d="m 0,0 h -16.228 c 0.018,-0.157 0.03,-0.319 0.032,-0.488 0.048,-4.104 0.967,-9.468 -2.525,-12.526 -0.103,-0.09 -0.217,-0.16 -0.326,-0.24 l 4.593,-0.001 h 11.187 l -0.062,0.025 H 0 c 3.654,0 6.615,2.961 6.615,6.615 C 6.615,-2.962 3.654,0 0,0"
         transform="translate(121.50683,-12.47558)" />
      <path
         inkscape:connector-curvature="0"
         id="path6322"
         style="fill:#002745;fill-opacity:1;fill-rule:nonzero;stroke:none"
         d="m 0,0 h -40.524 c -3.655,0 -6.616,-2.961 -6.616,-6.615 0,-3.654 2.961,-6.614 6.616,-6.614 h 3.8 l -3.24,-0.014 h 18.04 c 2.313,0 4.188,-1.875 4.188,-4.188 0,-2.312 -1.875,-4.187 -4.188,-4.187 h -22.578 l -0.017,-0.016 h -7.141 c -3.653,0 -6.615,-2.961 -6.615,-6.614 0,-3.654 2.962,-6.615 6.615,-6.615 h 17.987 c 2.832,-0.115 5.095,-2.44 5.095,-5.3 0,-2.696 -2.01,-4.917 -4.611,-5.26 h -30.268 c -3.653,0 -6.615,-2.962 -6.615,-6.615 0,-3.653 2.962,-6.615 6.615,-6.615 h 10.266 l 0.031,-0.014 h 25.98 L 0,-58.676 Z"
         transform="translate(-140.9161,95.282323)" />
      <path
         inkscape:connector-curvature="0"
         id="path6326"
         style="fill:#002745;fill-opacity:1;fill-rule:nonzero;stroke:none"
         d="m 0,0 h -41.018 c -1.968,0.299 -3.484,2.09 -3.484,4.261 0,1.97 1.249,3.629 2.952,4.142 h 25.581 c 3.446,0 6.24,2.962 6.24,6.616 0,3.653 -2.794,6.614 -6.24,6.614 H -71.38 v -35.837 c 0.813,0.611 1.804,0.974 2.876,0.974 H 0 c 3.445,0 6.239,2.961 6.239,6.615 C 6.239,-2.962 3.445,0 0,0"
         transform="translate(174.64643,8.8955208)" />
      <path
         inkscape:connector-curvature="0"
         id="path6330"
         style="fill:#002745;fill-opacity:1;fill-rule:nonzero;stroke:none"
         d="m 0,0 c 1.527,0 2.77,-1.242 2.77,-2.77 0,-1.527 -1.243,-2.769 -2.77,-2.769 -1.527,0 -2.771,1.242 -2.771,2.769 C -2.771,-1.242 -1.527,0 0,0 m 0,-9.458 c 3.688,0 6.688,3 6.688,6.688 0,3.688 -3,6.688 -6.688,6.688 -3.688,0 -6.688,-3 -6.688,-6.688 0,-3.688 3,-6.688 6.688,-6.688"
         transform="translate(-17.873103,147.54202)" />
      <path
         inkscape:connector-curvature="0"
         id="path6334"
         style="fill:#002745;fill-opacity:1;fill-rule:nonzero;stroke:none"
         d="m 0,0 c 3.013,0 5.464,-2.451 5.464,-5.464 0,-3.013 -2.451,-5.464 -5.464,-5.464 -3.014,0 -5.465,2.451 -5.465,5.464 C -5.465,-2.451 -3.014,0 0,0 m 0,-14.847 c 5.173,0 9.382,4.209 9.382,9.383 0,5.173 -4.209,9.382 -9.382,9.382 -5.174,0 -9.383,-4.209 -9.383,-9.382 0,-5.174 4.209,-9.383 9.383,-9.383"
         transform="translate(-17.873103,124.0449)" />
      <path
         inkscape:connector-curvature="0"
         id="path6338"
         style="fill:#002745;fill-opacity:1;fill-rule:nonzero;stroke:none"
         d="m 0,0 h 44.134 c 9.781,-33.116 2.115,-72.101 -2.589,-90.294 -0.135,-0.26 -0.204,-0.541 -0.215,-0.824 -1.02,-3.888 -1.882,-6.743 -2.358,-8.259 -1.417,-1.39 -9.045,-2.177 -16.783,-1.692 -0.081,0.006 -0.163,0.006 -0.245,0 -7.735,-0.484 -15.365,0.299 -16.782,1.692 -0.476,1.516 -1.338,4.371 -2.358,8.259 -0.011,0.283 -0.08,0.564 -0.215,0.824 C -2.114,-72.101 -9.78,-33.116 0,0 M 22.067,35.787 C 32.162,26.993 38.755,15.925 42.879,3.918 H 1.255 c 4.124,12.007 10.717,23.075 20.812,31.869 m 53.521,-152.681 -30.069,26.341 c 2.278,8.954 5.152,22.487 6.482,37.84 25.652,-11.521 24.579,-51.714 23.587,-64.181 m -107.043,-0.002 c -0.998,12.466 -2.088,52.656 23.588,64.184 1.33,-15.353 4.204,-28.887 6.482,-37.841 z m -3.509,-4.248 c 0.099,-0.712 0.582,-1.314 1.257,-1.566 0.222,-0.083 0.453,-0.123 0.684,-0.123 0.467,0 0.927,0.168 1.291,0.486 l 31.465,27.566 c 0.8,-2.902 1.446,-5.003 1.802,-6.122 0.056,-0.175 0.136,-0.341 0.237,-0.493 2.86,-4.291 16.093,-3.847 20.295,-3.591 1.131,-0.07 2.918,-0.153 4.982,-0.153 5.596,0 13.223,0.609 15.312,3.744 0.102,0.152 0.182,0.318 0.238,0.493 0.356,1.119 1.002,3.22 1.801,6.122 l 31.466,-27.566 c 0.363,-0.318 0.824,-0.486 1.291,-0.486 0.231,0 0.462,0.04 0.685,0.123 0.675,0.252 1.157,0.854 1.257,1.566 0.334,2.41 7.724,58.701 -26.786,72.568 2.01,30.29 -2.476,66.454 -28.996,88.442 -0.725,0.602 -1.775,0.602 -2.501,0 -26.518,-21.988 -31.005,-58.151 -28.996,-88.442 -34.508,-13.867 -27.119,-70.158 -26.784,-72.568"
         transform="translate(-39.940504,162.76762)" />
      <path
         inkscape:connector-curvature="0"
         id="path6342"
         style="fill:#002745;fill-opacity:1;fill-rule:nonzero;stroke:none"
         d="m 0,0 v 24.494 c 0,1.082 -0.877,1.959 -1.959,1.959 -1.082,0 -1.959,-0.877 -1.959,-1.959 V 0 c 0,-1.082 0.877,-1.959 1.959,-1.959 C -0.877,-1.959 0,-1.082 0,0"
         transform="translate(-22.098679,23.219771)" />
      <path
         inkscape:connector-curvature="0"
         id="path6346"
         style="fill:#002745;fill-opacity:1;fill-rule:nonzero;stroke:none"
         d="m 0,0 c 1.082,0 1.959,0.877 1.959,1.959 v 12.367 c 0,1.082 -0.877,1.959 -1.959,1.959 -1.082,0 -1.959,-0.877 -1.959,-1.959 V 1.959 C -1.959,0.877 -1.082,0 0,0"
         transform="translate(-11.689503,36.297897)" />
      <path
         inkscape:connector-curvature="0"
         id="path6350"
         style="fill:#002745;fill-opacity:1;fill-rule:nonzero;stroke:none"
         d="m 0,0 c 0,-1.081 0.877,-1.959 1.959,-1.959 1.082,0 1.959,0.878 1.959,1.959 V 5.82 C 3.918,6.902 3.041,7.78 1.959,7.78 0.877,7.78 0,6.902 0,5.82 Z"
         transform="translate(-13.648503,26.130896)" />
      <path
         inkscape:connector-curvature="0"
         id="path6354"
         style="fill:#002745;fill-opacity:1;fill-rule:nonzero;stroke:none"
         d="m 0,0 h -197.954 c -4.117,0 -7.467,2.849 -7.467,6.352 v 108.062 c 0,3.501 3.35,6.35 7.467,6.35 h 38.613 c 1.082,0 1.96,0.878 1.96,1.96 0,1.082 -0.878,1.959 -1.96,1.959 h -38.613 c -6.278,0 -11.386,-4.607 -11.386,-10.269 V 6.352 c 0,-5.664 5.108,-10.27 11.386,-10.27 L 0,-3.918 c 6.278,0 11.386,4.606 11.386,10.27 v 108.062 c 0,5.662 -5.108,10.269 -11.386,10.269 h -38.614 c -1.082,0 -1.96,-0.877 -1.96,-1.959 0,-1.082 0.878,-1.96 1.96,-1.96 H 0 c 4.117,0 7.467,-2.849 7.467,-6.35 V 6.352 C 7.467,2.849 4.117,0 0,0"
         transform="translate(81.103499,-20.19818)" />
      <path
         inkscape:connector-curvature="0"
         id="path6358"
         style="fill:#002745;fill-opacity:1;fill-rule:nonzero;stroke:none"
         d="m 0,0 h -253.911 c -6.247,0 -11.416,4.709 -12.145,10.764 h 16.076 c 0.344,-0.302 0.79,-0.491 1.283,-0.491 H -5.215 c 0.494,0 0.94,0.189 1.283,0.491 H 12.145 C 11.417,4.709 6.248,0 0,0 M 13.702,13.702 H -3.256 v 141.312 c 0,5.125 -4.795,9.294 -10.689,9.294 h -69.664 c -1.082,0 -1.96,-0.877 -1.96,-1.959 0,-1.082 0.878,-1.959 1.96,-1.959 h 69.664 c 3.671,0 6.771,-2.462 6.771,-5.376 V 14.192 h -239.563 v 140.822 c 0,2.914 3.1,5.376 6.77,5.376 h 69.779 c 1.083,0 1.959,0.877 1.959,1.959 0,1.082 -0.876,1.959 -1.959,1.959 h -69.779 c -5.894,0 -10.689,-4.169 -10.689,-9.294 V 13.702 h -16.956 c -0.812,0 -1.47,-0.658 -1.47,-1.47 0,-8.365 6.806,-15.17 15.171,-15.17 L 0,-2.938 c 8.366,0 15.172,6.805 15.172,15.17 0,0.812 -0.658,1.47 -1.47,1.47"
         transform="translate(109.08202,-46.002906)" />
      <path
         inkscape:connector-curvature="0"
         id="path6362"
         style="fill:#002745;fill-opacity:1;fill-rule:nonzero;stroke:none"
         d="m 0,0 c -2.439,0 -4.915,1.275 -6.481,2.768 l -2.04,-2.732 c 2.221,-2.184 5.353,-3.386 8.448,-3.386 5.244,0 8.193,3.278 8.193,7.319 0,8.266 -12.381,6.809 -12.381,12.307 0,2.222 2.003,3.642 4.625,3.642 2.039,0 4.261,-0.947 5.681,-2.258 l 1.638,2.95 c -1.893,1.785 -4.624,2.621 -7.173,2.621 -4.771,0 -8.411,-2.803 -8.411,-7.136 C -7.901,8.084 4.516,9.358 4.516,3.678 4.516,1.457 2.694,0 0,0"
         transform="translate(-49.911229,-10.12298)" />
      <path
         inkscape:connector-curvature="0"
         id="path6366"
         style="fill:#002745;fill-opacity:1;fill-rule:nonzero;stroke:none"
         d="M 0,0 H 15.585 V 3.133 H 3.604 v 8.264 h 9.213 v 3.132 H 3.604 v 8.047 h 11.362 v 3.132 L 0,25.708 Z"
         transform="translate(-29.416129,-13.03613)" />
      <path
         inkscape:connector-curvature="0"
         id="path6370"
         style="fill:#002745;fill-opacity:1;fill-rule:nonzero;stroke:none"
         d="m 0,0 c 0,5.571 4.005,9.831 9.504,9.831 5.462,0 9.467,-4.26 9.467,-9.831 0,-5.753 -4.005,-10.159 -9.467,-10.159 C 4.005,-10.159 0,-5.753 0,0 M 22.685,0 C 22.685,7.392 17.15,13.108 9.504,13.108 1.857,13.108 -3.714,7.392 -3.714,0 c 0,-7.573 5.571,-13.473 13.218,-13.473 7.646,0 13.181,5.9 13.181,13.473" />
    </g>
  </g>
</svg>
